<?xml version="1.0" encoding="UTF-8" standalone="no"?>
<!DOCTYPE svg PUBLIC "-//W3C//DTD SVG 1.1//EN"
 "http://www.w3.org/Graphics/SVG/1.1/DTD/svg11.dtd">
<!-- Generated by graphviz version 2.43.0 (0)
 -->
<!-- Title: dag Pages: 1 -->
<svg width="1102pt" height="521pt"
 viewBox="0.00 0.00 1101.80 520.80" xmlns="http://www.w3.org/2000/svg" xmlns:xlink="http://www.w3.org/1999/xlink">
<g id="graph0" class="graph" transform="scale(1 1) rotate(0) translate(4 516.8)">
<title>dag</title>
<polygon fill="white" stroke="transparent" points="-4,4 -4,-516.8 1097.8,-516.8 1097.8,4 -4,4"/>
<!-- v0 -->
<g id="node1" class="node">
<title>v0</title>
<ellipse fill="black" stroke="black" cx="261.8" cy="-494.2" rx="3.6" ry="3.6"/>
<text text-anchor="middle" x="178.2" y="-501.6" font-family="Times,serif" font-size="14.00">Channel.fromFilePairs</text>
</g>
<!-- v1 -->
<g id="node2" class="node">
<title>v1</title>
<ellipse fill="none" stroke="black" cx="261.8" cy="-450.1" rx="3.5" ry="3.5"/>
<text text-anchor="middle" x="229.3" y="-457.4" font-family="Times,serif" font-size="14.00">ifEmpty</text>
</g>
<!-- v0&#45;&gt;v1 -->
<g id="edge1" class="edge">
<title>v0&#45;&gt;v1</title>
<path fill="none" stroke="black" d="M261.8,-490.44C261.8,-485.15 261.8,-473.28 261.8,-463.95"/>
<polygon fill="black" stroke="black" points="265.3,-463.93 261.8,-453.93 258.3,-463.93 265.3,-463.93"/>
</g>
<!-- v2 -->
<g id="node3" class="node">
<title>v2</title>
<ellipse fill="none" stroke="black" cx="261.8" cy="-392.1" rx="3.5" ry="3.5"/>
<text text-anchor="middle" x="242.8" y="-399.4" font-family="Times,serif" font-size="14.00">map</text>
</g>
<!-- v1&#45;&gt;v2 -->
<g id="edge2" class="edge">
<title>v1&#45;&gt;v2</title>
<path fill="none" stroke="black" d="M261.8,-446.4C261.8,-439.18 261.8,-419.08 261.8,-405.73"/>
<polygon fill="black" stroke="black" points="265.3,-405.64 261.8,-395.64 258.3,-405.64 265.3,-405.64"/>
<text text-anchor="middle" x="299.8" y="-417.4" font-family="Times,serif" font-size="14.00">read_pairs</text>
</g>
<!-- v3 -->
<g id="node4" class="node">
<title>v3</title>
<ellipse fill="none" stroke="black" cx="208.8" cy="-232.6" rx="38.99" ry="18"/>
<text text-anchor="middle" x="208.8" y="-228.9" font-family="Times,serif" font-size="14.00">fastqc</text>
</g>
<!-- v2&#45;&gt;v3 -->
<g id="edge3" class="edge">
<title>v2&#45;&gt;v3</title>
<path fill="none" stroke="black" d="M260.97,-388.63C256.12,-374.23 231.31,-300.51 217.73,-260.13"/>
<polygon fill="black" stroke="black" points="221.04,-259 214.53,-250.64 214.41,-261.23 221.04,-259"/>
<text text-anchor="middle" x="281.8" y="-315.9" font-family="Times,serif" font-size="14.00">read_pairs</text>
</g>
<!-- v6 -->
<g id="node9" class="node">
<title>v6</title>
<ellipse fill="none" stroke="black" cx="469.8" cy="-319.6" rx="34.39" ry="18"/>
<text text-anchor="middle" x="469.8" y="-315.9" font-family="Times,serif" font-size="14.00">fastp</text>
</g>
<!-- v2&#45;&gt;v6 -->
<g id="edge8" class="edge">
<title>v2&#45;&gt;v6</title>
<path fill="none" stroke="black" d="M264.74,-390.1C282.64,-384.04 377.95,-351.73 432.11,-333.37"/>
<polygon fill="black" stroke="black" points="433.37,-336.64 441.72,-330.12 431.12,-330.01 433.37,-336.64"/>
<text text-anchor="middle" x="403.8" y="-359.4" font-family="Times,serif" font-size="14.00">read_pairs</text>
</g>
<!-- v5 -->
<g id="node5" class="node">
<title>v5</title>
<ellipse fill="black" stroke="black" cx="208.8" cy="-145.6" rx="1.8" ry="1.8"/>
</g>
<!-- v3&#45;&gt;v5 -->
<g id="edge4" class="edge">
<title>v3&#45;&gt;v5</title>
<path fill="none" stroke="black" d="M208.8,-214.4C208.8,-197.52 208.8,-172.26 208.8,-157.82"/>
<polygon fill="black" stroke="black" points="212.3,-157.68 208.8,-147.68 205.3,-157.68 212.3,-157.68"/>
<text text-anchor="middle" x="260.3" y="-185.4" font-family="Times,serif" font-size="14.00">qc_sample_ids</text>
</g>
<!-- v4 -->
<g id="node6" class="node">
<title>v4</title>
<ellipse fill="black" stroke="black" cx="1.8" cy="-145.6" rx="1.8" ry="1.8"/>
</g>
<!-- v3&#45;&gt;v4 -->
<g id="edge5" class="edge">
<title>v3&#45;&gt;v4</title>
<path fill="none" stroke="black" d="M171,-227.85C125.62,-222.72 52.85,-212.33 30.8,-196.6 17.18,-186.88 9,-168.61 4.95,-157.05"/>
<polygon fill="black" stroke="black" points="8.29,-156.02 2.02,-147.48 1.6,-158.07 8.29,-156.02"/>
<text text-anchor="middle" x="77.8" y="-185.4" font-family="Times,serif" font-size="14.00">qc_html_files</text>
</g>
<!-- v15 -->
<g id="node7" class="node">
<title>v15</title>
<ellipse fill="none" stroke="black" cx="118.8" cy="-145.6" rx="3.5" ry="3.5"/>
<text text-anchor="middle" x="91.8" y="-152.9" font-family="Times,serif" font-size="14.00">collect</text>
</g>
<!-- v3&#45;&gt;v15 -->
<g id="edge6" class="edge">
<title>v3&#45;&gt;v15</title>
<path fill="none" stroke="black" d="M177.23,-221.94C163.57,-216.4 148.34,-208.19 137.8,-196.6 128.28,-186.13 123.36,-170.41 120.94,-159.4"/>
<polygon fill="black" stroke="black" points="124.33,-158.46 119.12,-149.23 117.44,-159.69 124.33,-158.46"/>
<text text-anchor="middle" x="171.3" y="-185.4" font-family="Times,serif" font-size="14.00">qc_zip_r1</text>
</g>
<!-- v16 -->
<g id="node8" class="node">
<title>v16</title>
<ellipse fill="none" stroke="black" cx="307.8" cy="-145.6" rx="3.5" ry="3.5"/>
<text text-anchor="middle" x="280.8" y="-152.9" font-family="Times,serif" font-size="14.00">collect</text>
</g>
<!-- v3&#45;&gt;v16 -->
<g id="edge7" class="edge">
<title>v3&#45;&gt;v16</title>
<path fill="none" stroke="black" d="M247.26,-229.41C270.31,-225.88 297.96,-217.25 312.8,-196.6 320.73,-185.57 317.16,-169.46 313.15,-158.53"/>
<polygon fill="black" stroke="black" points="316.3,-157.01 309.15,-149.19 309.87,-159.76 316.3,-157.01"/>
<text text-anchor="middle" x="351.3" y="-185.4" font-family="Times,serif" font-size="14.00">qc_zip_r2</text>
</g>
<!-- v19 -->
<g id="node20" class="node">
<title>v19</title>
<ellipse fill="none" stroke="black" cx="356.8" cy="-58.6" rx="46.29" ry="18"/>
<text text-anchor="middle" x="356.8" y="-54.9" font-family="Times,serif" font-size="14.00">multiqc</text>
</g>
<!-- v15&#45;&gt;v19 -->
<g id="edge19" class="edge">
<title>v15&#45;&gt;v19</title>
<path fill="none" stroke="black" d="M118.88,-141.78C119.28,-133.18 121.73,-107.07 136.8,-94.6 161.13,-74.46 243.97,-65.77 300.75,-62.12"/>
<polygon fill="black" stroke="black" points="301.26,-65.6 311.03,-61.5 300.84,-58.61 301.26,-65.6"/>
<text text-anchor="middle" x="205.8" y="-98.4" font-family="Times,serif" font-size="14.00">collected_qc_zip_r1</text>
</g>
<!-- v16&#45;&gt;v19 -->
<g id="edge20" class="edge">
<title>v16&#45;&gt;v19</title>
<path fill="none" stroke="black" d="M305.19,-142.63C296.43,-135.8 269.31,-112.54 280.8,-94.6 287.29,-84.47 297.53,-77.23 308.42,-72.07"/>
<polygon fill="black" stroke="black" points="309.78,-75.3 317.65,-68.21 307.08,-68.84 309.78,-75.3"/>
<text text-anchor="middle" x="349.8" y="-98.4" font-family="Times,serif" font-size="14.00">collected_qc_zip_r2</text>
</g>
<!-- v9 -->
<g id="node10" class="node">
<title>v9</title>
<ellipse fill="none" stroke="black" cx="699.8" cy="-232.6" rx="39.79" ry="18"/>
<text text-anchor="middle" x="699.8" y="-228.9" font-family="Times,serif" font-size="14.00">hisat2</text>
</g>
<!-- v6&#45;&gt;v9 -->
<g id="edge9" class="edge">
<title>v6&#45;&gt;v9</title>
<path fill="none" stroke="black" d="M496.62,-308.29C511.8,-302 530.88,-293.31 546.8,-283.6 555.99,-278 556.17,-273.39 565.8,-268.6 592.97,-255.07 625.93,-246.38 652.36,-241.03"/>
<polygon fill="black" stroke="black" points="653.36,-244.41 662.52,-239.08 652.03,-237.53 653.36,-244.41"/>
<text text-anchor="middle" x="639.3" y="-272.4" font-family="Times,serif" font-size="14.00">trimmed_reads_data</text>
</g>
<!-- v7 -->
<g id="node11" class="node">
<title>v7</title>
<ellipse fill="black" stroke="black" cx="469.8" cy="-232.6" rx="1.8" ry="1.8"/>
</g>
<!-- v6&#45;&gt;v7 -->
<g id="edge10" class="edge">
<title>v6&#45;&gt;v7</title>
<path fill="none" stroke="black" d="M469.8,-301.4C469.8,-284.52 469.8,-259.26 469.8,-244.82"/>
<polygon fill="black" stroke="black" points="473.3,-244.68 469.8,-234.68 466.3,-244.68 473.3,-244.68"/>
<text text-anchor="middle" x="507.8" y="-272.4" font-family="Times,serif" font-size="14.00">fastp_html</text>
</g>
<!-- v17 -->
<g id="node12" class="node">
<title>v17</title>
<ellipse fill="none" stroke="black" cx="421.8" cy="-189.1" rx="3.5" ry="3.5"/>
<text text-anchor="middle" x="441.8" y="-196.4" font-family="Times,serif" font-size="14.00">collect</text>
</g>
<!-- v6&#45;&gt;v17 -->
<g id="edge11" class="edge">
<title>v6&#45;&gt;v17</title>
<path fill="none" stroke="black" d="M437.75,-312.61C421.33,-307.74 402.74,-299.03 392.8,-283.6 375.34,-256.48 399.71,-218.18 413.48,-200.18"/>
<polygon fill="black" stroke="black" points="416.27,-202.3 419.84,-192.32 410.83,-197.89 416.27,-202.3"/>
<text text-anchor="middle" x="429.3" y="-272.4" font-family="Times,serif" font-size="14.00">fastp_json</text>
</g>
<!-- v12 -->
<g id="node14" class="node">
<title>v12</title>
<ellipse fill="none" stroke="black" cx="868.8" cy="-145.6" rx="75.29" ry="18"/>
<text text-anchor="middle" x="868.8" y="-141.9" font-family="Times,serif" font-size="14.00">featurecounts</text>
</g>
<!-- v9&#45;&gt;v12 -->
<g id="edge13" class="edge">
<title>v9&#45;&gt;v12</title>
<path fill="none" stroke="black" d="M728.64,-220.04C744.26,-213.55 763.8,-205.07 780.8,-196.6 798.42,-187.82 817.47,-177.15 833.32,-167.93"/>
<polygon fill="black" stroke="black" points="835.4,-170.77 842.25,-162.69 831.85,-164.73 835.4,-170.77"/>
<text text-anchor="middle" x="860.8" y="-185.4" font-family="Times,serif" font-size="14.00">bam_files_data</text>
</g>
<!-- v10 -->
<g id="node15" class="node">
<title>v10</title>
<ellipse fill="black" stroke="black" cx="595.8" cy="-145.6" rx="1.8" ry="1.8"/>
</g>
<!-- v9&#45;&gt;v10 -->
<g id="edge14" class="edge">
<title>v9&#45;&gt;v10</title>
<path fill="none" stroke="black" d="M660.53,-229.78C636.77,-226.4 608.17,-217.8 592.8,-196.6 584.47,-185.12 587.98,-167.97 591.61,-157.03"/>
<polygon fill="black" stroke="black" points="595,-157.99 595.41,-147.41 588.49,-155.42 595,-157.99"/>
<text text-anchor="middle" x="633.3" y="-185.4" font-family="Times,serif" font-size="14.00">hisat2_logs</text>
</g>
<!-- v18 -->
<g id="node16" class="node">
<title>v18</title>
<ellipse fill="none" stroke="black" cx="658.8" cy="-145.6" rx="3.5" ry="3.5"/>
<text text-anchor="middle" x="631.8" y="-152.9" font-family="Times,serif" font-size="14.00">collect</text>
</g>
<!-- v9&#45;&gt;v18 -->
<g id="edge15" class="edge">
<title>v9&#45;&gt;v18</title>
<path fill="none" stroke="black" d="M692.81,-214.77C688.64,-205 683.14,-192.5 677.8,-181.6 673.9,-173.65 669.14,-164.89 665.37,-158.12"/>
<polygon fill="black" stroke="black" points="668.23,-156.08 660.26,-149.11 662.14,-159.53 668.23,-156.08"/>
<text text-anchor="middle" x="730.8" y="-185.4" font-family="Times,serif" font-size="14.00">flagstat_files</text>
</g>
<!-- v17&#45;&gt;v19 -->
<g id="edge21" class="edge">
<title>v17&#45;&gt;v19</title>
<path fill="none" stroke="black" d="M422.55,-185.54C425.81,-173.97 437.64,-125.72 418.8,-94.6 414.2,-87 407.29,-80.91 399.74,-76.08"/>
<polygon fill="black" stroke="black" points="401.11,-72.83 390.68,-70.97 397.67,-78.93 401.11,-72.83"/>
<text text-anchor="middle" x="500.3" y="-141.9" font-family="Times,serif" font-size="14.00">collected_fastp_json</text>
</g>
<!-- v8 -->
<g id="node13" class="node">
<title>v8</title>
<ellipse fill="black" stroke="black" cx="738.8" cy="-319.6" rx="3.6" ry="3.6"/>
</g>
<!-- v8&#45;&gt;v9 -->
<g id="edge12" class="edge">
<title>v8&#45;&gt;v9</title>
<path fill="none" stroke="black" d="M737.64,-315.87C734.43,-308.32 725.08,-286.5 716.8,-268.6 715.41,-265.6 713.93,-262.46 712.44,-259.35"/>
<polygon fill="black" stroke="black" points="715.56,-257.75 708.06,-250.27 709.26,-260.8 715.56,-257.75"/>
<text text-anchor="middle" x="779.8" y="-272.4" font-family="Times,serif" font-size="14.00">hisat2_index_ch</text>
</g>
<!-- v14 -->
<g id="node18" class="node">
<title>v14</title>
<ellipse fill="black" stroke="black" cx="855.8" cy="-58.6" rx="1.8" ry="1.8"/>
</g>
<!-- v12&#45;&gt;v14 -->
<g id="edge17" class="edge">
<title>v12&#45;&gt;v14</title>
<path fill="none" stroke="black" d="M866.17,-127.4C863.59,-110.52 859.72,-85.26 857.52,-70.82"/>
<polygon fill="black" stroke="black" points="860.94,-70.04 855.97,-60.68 854.02,-71.1 860.94,-70.04"/>
</g>
<!-- v13 -->
<g id="node19" class="node">
<title>v13</title>
<ellipse fill="black" stroke="black" cx="880.8" cy="-58.6" rx="1.8" ry="1.8"/>
</g>
<!-- v12&#45;&gt;v13 -->
<g id="edge18" class="edge">
<title>v12&#45;&gt;v13</title>
<path fill="none" stroke="black" d="M871.23,-127.4C873.61,-110.52 877.18,-85.26 879.22,-70.82"/>
<polygon fill="black" stroke="black" points="882.71,-71.07 880.65,-60.68 875.78,-70.09 882.71,-71.07"/>
</g>
<!-- v18&#45;&gt;v19 -->
<g id="edge22" class="edge">
<title>v18&#45;&gt;v19</title>
<path fill="none" stroke="black" d="M655.53,-143.47C647.36,-140.65 625.36,-133.15 606.8,-127.6 536.65,-106.61 454.63,-84.82 404.2,-71.73"/>
<polygon fill="black" stroke="black" points="404.8,-68.27 394.24,-69.15 403.04,-75.05 404.8,-68.27"/>
<text text-anchor="middle" x="619.3" y="-98.4" font-family="Times,serif" font-size="14.00">collected_flagstat_files</text>
</g>
<!-- v11 -->
<g id="node17" class="node">
<title>v11</title>
<ellipse fill="black" stroke="black" cx="943.8" cy="-232.6" rx="3.6" ry="3.6"/>
</g>
<!-- v11&#45;&gt;v12 -->
<g id="edge16" class="edge">
<title>v11&#45;&gt;v12</title>
<path fill="none" stroke="black" d="M943.22,-229.04C941.34,-221.17 934.77,-196.97 921.8,-181.6 917.65,-176.68 912.63,-172.18 907.36,-168.17"/>
<polygon fill="black" stroke="black" points="909.15,-165.15 898.96,-162.27 905.13,-170.88 909.15,-165.15"/>
<text text-anchor="middle" x="1012.3" y="-185.4" font-family="Times,serif" font-size="14.00">genome_annotation_ch</text>
</g>
<!-- v21 -->
<g id="node21" class="node">
<title>v21</title>
<ellipse fill="black" stroke="black" cx="344.8" cy="-1.8" rx="1.8" ry="1.8"/>
</g>
<!-- v19&#45;&gt;v21 -->
<g id="edge23" class="edge">
<title>v19&#45;&gt;v21</title>
<path fill="none" stroke="black" d="M353.07,-40.56C351.14,-31.76 348.85,-21.3 347.17,-13.61"/>
<polygon fill="black" stroke="black" points="350.57,-12.78 345.01,-3.76 343.73,-14.28 350.57,-12.78"/>
</g>
<!-- v20 -->
<g id="node22" class="node">
<title>v20</title>
<ellipse fill="black" stroke="black" cx="369.8" cy="-1.8" rx="1.8" ry="1.8"/>
</g>
<!-- v19&#45;&gt;v20 -->
<g id="edge24" class="edge">
<title>v19&#45;&gt;v20</title>
<path fill="none" stroke="black" d="M360.84,-40.56C362.93,-31.76 365.41,-21.3 367.23,-13.61"/>
<polygon fill="black" stroke="black" points="370.67,-14.3 369.57,-3.76 363.86,-12.68 370.67,-14.3"/>
</g>
</g>
</svg>
